<svg xmlns="http://www.w3.org/2000/svg" viewBox="0 0 512 512"><defs><linearGradient id="bg" x1="0" y1="0" x2="1" y2="1"><stop offset="0%" stop-color="#f97316"/><stop offset="100%" stop-color="#e11d48"/></linearGradient><filter id="shadow"><feDropShadow dx="0" dy="8" stdDeviation="8" flood-opacity=".15"/></filter></defs><rect width="512" height="512" rx="96" fill="url(#bg)"/><rect x="96" y="96" width="320" height="320" rx="40" fill="#fff" filter="url(#shadow)"/><line x1="184" y1="112" x2="184" y2="400" stroke="#cbd5e1" stroke-width="4"/><line x1="256" y1="112" x2="256" y2="400" stroke="#cbd5e1" stroke-width="4"/><line x1="328" y1="112" x2="328" y2="400" stroke="#cbd5e1" stroke-width="4"/><line x1="112" y1="184" x2="400" y2="184" stroke="#cbd5e1" stroke-width="4"/><line x1="112" y1="256" x2="400" y2="256" stroke="#cbd5e1" stroke-width="4"/><line x1="112" y1="328" x2="400" y2="328" stroke="#cbd5e1" stroke-width="4"/><line x1="274" y1="130" x2="310" y2="166" stroke="#ef4444" stroke-width="14" stroke-linecap="round"/><line x1="310" y1="130" x2="274" y2="166" stroke="#ef4444" stroke-width="14" stroke-linecap="round"/><text x="148" y="236" font-family="system-ui,sans-serif" font-size="52" font-weight="700" fill="#8b5cf6" text-anchor="middle">?</text><circle cx="220" cy="220" r="24" stroke="#3b82f6" stroke-width="14" fill="none"/><circle cx="292" cy="220" r="24" stroke="#3b82f6" stroke-width="14" fill="none"/><text x="364" y="236" font-family="system-ui,sans-serif" font-size="52" font-weight="700" fill="#8b5cf6" text-anchor="middle">?</text><line x1="274" y1="274" x2="310" y2="310" stroke="#ef4444" stroke-width="14" stroke-linecap="round"/><line x1="310" y1="274" x2="274" y2="310" stroke="#ef4444" stroke-width="14" stroke-linecap="round"/></svg>